<svg xmlns="http://www.w3.org/2000/svg" style="display: none;" stroke-width="2" stroke="currentColor" fill="none" stroke-linecap="round" stroke-linejoin="round">

    <!-- Icoon zonsopgang -->
    <symbol id="icon-sunrise" viewBox="0 0 24 24">
        <path stroke="none" d="M0 0h24v24H0z" fill="none"></path>
        <path d="M3 17h1m16 0h1m-15.4 -6.4l.7 .7m12.1 -.7l-.7 .7m-9.7 5.7a4 4 0 0 1 8 0"></path>
        <path d="M3 21l18 0"></path>
        <path d="M12 9v-6l3 3m-6 0l3 -3"></path>
    </symbol>

    <!-- Icoon zonsondergang -->
    <symbol id="icon-sunset" viewBox="0 0 24 24">
        <path stroke="none" d="M0 0h24v24H0z" fill="none"></path>
        <path d="M3 17h1m16 0h1m-15.4 -6.4l.7 .7m12.1 -.7l-.7 .7m-9.7 5.7a4 4 0 0 1 8 0"></path>
        <path d="M3 21l18 0"></path>
        <path d="M12 3v6l3 -3m-6 0l3 3"></path>
    </symbol>

    <!-- Icoon regenwolk -->
    <symbol id="icon-cloud-rain" viewBox="0 0 24 24">
        <path stroke="none" d="M0 0h24v24H0z" fill="none"></path>
        <path d="M7 18a4.6 4.4 0 0 1 0 -9a5 4.5 0 0 1 11 2h1a3.5 3.5 0 0 1 0 7"></path>
        <path d="M11 13v2m0 3v2m4 -5v2m0 3v2"></path>
    </symbol>

    <!-- Icoon regendruppel -->
    <symbol id="icon-droplet" viewBox="0 0 24 24">
        <path stroke="none" d="M0 0h24v24H0z" fill="none"></path>
        <path d="M7.502 19.423c2.602 2.105 6.395 2.105 8.996 0c2.602 -2.105 3.262 -5.708 1.566 -8.546l-4.89 -7.26c-.42 -.625 -1.287 -.803 -1.936 -.397a1.376 1.376 0 0 0 -.41 .397l-4.893 7.26c-1.695 2.838 -1.035 6.441 1.567 8.546z"></path>
    </symbol>

    <!-- Icoon luchtdruk -->
    <symbol id="icon-pressure" viewBox="0 0 24 24">
        <g clip-path="url(#clip0_3_412)">
        <path d="M11 12C11 12.2652 11.1054 12.5196 11.2929 12.7071C11.4804 12.8946 11.7348 13 12 13C12.2652 13 12.5196 12.8946 12.7071 12.7071C12.8946 12.5196 13 12.2652 13 12C13 11.7348 12.8946 11.4804 12.7071 11.2929C12.5196 11.1054 12.2652 11 12 11C11.7348 11 11.4804 11.1054 11.2929 11.2929C11.1054 11.4804 11 11.7348 11 12Z" stroke="#F4F4F4" stroke-width="2" stroke-linecap="round" stroke-linejoin="round"/>
        <path d="M7 12C7 13.3261 7.52678 14.5979 8.46447 15.5355C9.40215 16.4732 10.6739 17 12 17C13.3261 17 14.5979 16.4732 15.5355 15.5355C16.4732 14.5979 17 13.3261 17 12C17 10.6739 16.4732 9.40215 15.5355 8.46447C14.5979 7.52678 13.3261 7 12 7C10.6739 7 9.40215 7.52678 8.46447 8.46447C7.52678 9.40215 7 10.6739 7 12Z" stroke="#F4F4F4" stroke-width="2" stroke-linecap="round" stroke-linejoin="round"/>
        <path d="M3 12C3 13.1819 3.23279 14.3522 3.68508 15.4442C4.13738 16.5361 4.80031 17.5282 5.63604 18.364C6.47177 19.1997 7.46392 19.8626 8.55585 20.3149C9.64778 20.7672 10.8181 21 12 21C13.1819 21 14.3522 20.7672 15.4442 20.3149C16.5361 19.8626 17.5282 19.1997 18.364 18.364C19.1997 17.5282 19.8626 16.5361 20.3149 15.4442C20.7672 14.3522 21 13.1819 21 12C21 10.8181 20.7672 9.64778 20.3149 8.55585C19.8626 7.46392 19.1997 6.47177 18.364 5.63604C17.5282 4.80031 16.5361 4.13738 15.4442 3.68508C14.3522 3.23279 13.1819 3 12 3C10.8181 3 9.64778 3.23279 8.55585 3.68508C7.46392 4.13738 6.47177 4.80031 5.63604 5.63604C4.80031 6.47177 4.13738 7.46392 3.68508 8.55585C3.23279 9.64778 3 10.8181 3 12Z" stroke="#F4F4F4" stroke-width="2" stroke-linecap="round" stroke-linejoin="round"/>
        </g>
        <defs>
        <clipPath id="clip0_3_412">
        <rect width="24" height="24" fill="white"/>
        </clipPath>
        </defs>
    </symbol>

    <!-- Icoon uv-index -->
    <symbol id="icon-uv-index" viewBox="0 0 24 24">
        <g clip-path="url(#clip0_3_431)">
        <path d="M9 12C9 12.7956 9.31607 13.5587 9.87868 14.1213C10.4413 14.6839 11.2044 15 12 15C12.7956 15 13.5587 14.6839 14.1213 14.1213C14.6839 13.5587 15 12.7956 15 12C15 11.2044 14.6839 10.4413 14.1213 9.87868C13.5587 9.31607 12.7956 9 12 9C11.2044 9 10.4413 9.31607 9.87868 9.87868C9.31607 10.4413 9 11.2044 9 12Z" stroke="#F4F4F4" stroke-width="2" stroke-linecap="round" stroke-linejoin="round"/>
        <path d="M6 6H9.5L12 3.5L14.5 6H18V9.5L20.5 12L18 14.5V18H14.5L12 20.5L9.5 18H6V14.5L3.5 12L6 9.5V6Z" stroke="#F4F4F4" stroke-width="2" stroke-linecap="round" stroke-linejoin="round"/>
        </g>
        <defs>
        <clipPath id="clip0_3_431">
        <rect width="24" height="24" fill="white"/>
        </clipPath>
        </defs>
    </symbol>

    <!-- Icoon gevoelstemperatuur -->
    <symbol id="icon-thermometer" viewBox="0 0 24 24">
        <path stroke="none" d="M0 0h24v24H0z" fill="none"></path>
        <path d="M19 5a2.828 2.828 0 0 1 0 4l-8 8h-4v-4l8 -8a2.828 2.828 0 0 1 4 0z"></path>
        <path d="M16 7l-1.5 -1.5"></path>
        <path d="M13 10l-1.5 -1.5"></path>
        <path d="M10 13l-1.5 -1.5"></path>
        <path d="M7 17l-3 3"></path>
    </symbol>

    <!-- Icoon grondtemperatuur -->
    <symbol id="icon-soil-temperature" viewBox="0 0 24 24">
        <path stroke="none" d="M0 0h24v24H0z" fill="none"></path>
        <path d="M12 10a6 6 0 0 0 -6 -6h-3v2a6 6 0 0 0 6 6h3"></path>
        <path d="M12 14a6 6 0 0 1 6 -6h3v1a6 6 0 0 1 -6 6h-3"></path>
        <path d="M12 20l0 -10"></path>
    </symbol>

    <!-- Icoon bodemvocht -->
    <symbol id="icon-texture" viewBox="0 0 24 24">
        <path stroke="none" d="M0 0h24v24H0z" fill="none"></path>
        <path d="M6 3l-3 3"></path>
        <path d="M21 18l-3 3"></path>
        <path d="M11 3l-8 8"></path>
        <path d="M16 3l-13 13"></path>
        <path d="M21 3l-18 18"></path>
        <path d="M21 8l-13 13"></path>
        <path d="M21 13l-8 8"></path>
    </symbol>

    <!-- Icoon windsnelheid -->
    <symbol id="icon-windspeed" viewBox="0 0 24 24">
        <path stroke="none" d="M0 0h24v24H0z" fill="none"></path>
        <path d="M5 8h8.5a2.5 2.5 0 1 0 -2.34 -3.24"></path>
        <path d="M3 12h15.5a2.5 2.5 0 1 1 -2.34 3.24"></path>
        <path d="M4 16h5.5a2.5 2.5 0 1 1 -2.34 3.24"></path>
    </symbol>

    <!-- Icoon windrichting -->
    <symbol id="icon-winddirection" viewBox="0 0 24 24">
        <path stroke="none" d="M0 0h24v24H0z" fill="none"></path>
        <path d="M6 3v18"></path>
        <path d="M6 11l12 -1v-4l-12 -1"></path>
        <path d="M10 5.5v5"></path>
        <path d="M14 6v4"></path>
        <path d="M4 21h4"></path>
    </symbol>

    <!-- Icoon zicht -->
    <symbol id="icon-visibility" viewBox="0 0 24 24">
        <g clip-path="url(#clip0_3_422)">
        <path d="M10 12C10 12.5304 10.2107 13.0391 10.5858 13.4142C10.9609 13.7893 11.4696 14 12 14C12.5304 14 13.0391 13.7893 13.4142 13.4142C13.7893 13.0391 14 12.5304 14 12C14 11.4696 13.7893 10.9609 13.4142 10.5858C13.0391 10.2107 12.5304 10 12 10C11.4696 10 10.9609 10.2107 10.5858 10.5858C10.2107 10.9609 10 11.4696 10 12Z" stroke="#F4F4F4" stroke-width="2" stroke-linecap="round" stroke-linejoin="round"/>
        <path d="M21 12C18.6 16 15.6 18 12 18C8.4 18 5.4 16 3 12C5.4 8 8.4 6 12 6C15.6 6 18.6 8 21 12Z" stroke="#F4F4F4" stroke-width="2" stroke-linecap="round" stroke-linejoin="round"/>
        </g>
        <defs>
        <clipPath id="clip0_3_422">
        <rect width="24" height="24" fill="white"/>
        </clipPath>
        </defs>
    </symbol>

    <symbol id="icon-location" viewBox="0 0 24 24">
        <path stroke="none" d="M0 0h24v24H0z" fill="none"></path>
        <path d="M21 3l-6.5 18a.55 .55 0 0 1 -1 0l-3.5 -7l-7 -3.5a.55 .55 0 0 1 0 -1l18 -6.5"></path>
    </symbol>

</svg>