<?xml version="1.0" encoding="UTF-8"?>
<svg id="Laag_2" data-name="Laag 2" xmlns="http://www.w3.org/2000/svg" viewBox="0 0 411.43 121.83">
  <defs>
    <style>
      .cls-1 {
        fill: #fff;
      }
    </style>
  </defs>
  <g id="Laag_1-2" data-name="Laag 1">
    <g>
      <path class="cls-1" d="m65.67,37.28c-13.06,0-25.51,10.58-27.81,23.64-2.3,13.05,6.42,23.63,19.47,23.63s25.51-10.58,27.81-23.63c2.3-13.06-6.42-23.64-19.47-23.64Z"/>
      <polygon class="cls-1" points="111.17 77.06 109.82 73.29 109.59 72.62 109.43 72.19 109.32 72.49 109.05 73.26 107.74 76.95 106.43 80.65 103.58 88.71 103.29 89.54 103.29 89.55 104.15 89.55 115.62 89.55 115.62 89.54 112.45 80.66 111.17 77.06"/>
      <path class="cls-1" d="m373.94,68.42h-7.04v12.16h7.04c1.35,0,2.52-.25,3.49-.71.39-.18.75-.39,1.07-.64.17-.12.32-.25.46-.39,1.16-1.09,1.78-2.61,1.78-4.35,0-3.5-2.48-6.07-6.8-6.07Z"/>
      <path class="cls-1" d="m397.24,92.21c4.4-4.69,6.82-10.85,6.82-17.68,0-15.83-11.91-27.32-28.32-27.32h-140.43l-4.69,17.04-7.11-16.76h-15.3l-6.97,16.71-4.78-16.99h-60.64v34.3l-13.26-33.03-.26-.63-.25-.64h-.08c-1.28-2.19-3.64-3.65-6.31-3.69l-8.55-.17,8.41-7.37c2.74-2.41,3.35-6.42,1.46-9.53-1.4-2.28-3.85-3.59-6.39-3.59-.93,0-1.86.17-2.76.53l-8.61,3.4,4.48-8.27c1.73-3.2.91-7.18-1.96-9.44-1.36-1.08-3-1.6-4.63-1.6-1.8,0-3.59.64-5.02,1.92l-8.18,7.37.89-8.5c.39-3.57-1.83-6.91-5.27-7.94-.73-.22-1.46-.33-2.17-.33-2.73,0-5.32,1.51-6.64,4.04l-5.32,10.21-.52,1.01-3.03-8.53c-1.08-3.01-3.92-4.97-7.06-4.98-.31,0-.63.03-.94.07-3.49.44-6.2,3.25-6.52,6.75l-.94,10.57-.22,2.36-7.87-7.14c-1.41-1.28-3.22-1.94-5.02-1.94-1.47,0-2.94.42-4.21,1.29-2.87,1.95-4.02,5.6-2.8,8.84l3.37,8.93.76,2.03-.38-.1-11.59-3.02c-.63-.17-1.27-.25-1.89-.25-2.73,0-5.31,1.49-6.63,3.99-1.62,3.08-.91,6.87,1.71,9.14l6.72,5.84.75.66-12.87,2.2C2.72,52.57.12,55.54,0,59.1c-.11,3.55,2.28,6.7,5.74,7.52l8.44,2.03-10.36,6.26c-3.11,1.87-4.42,5.69-3.14,9.07,1.13,2.95,3.94,4.83,6.99,4.83.46,0,.93-.04,1.39-.13l8.59-1.61-6.4,7.98c-2.29,2.86-2.18,6.94.24,9.66,1.46,1.65,3.52,2.52,5.6,2.52,1.36,0,2.74-.38,3.96-1.14l7.84-4.9.7-.43-2.66,8.38c-1.09,3.45.45,7.2,3.66,8.89,1.11.58,2.29.86,3.47.86,2.26,0,4.47-1.02,5.93-2.9l5.59-7.22,1.74-2.23.95,8.62c.38,3.53,3.21,6.31,6.76,6.63.23.02.45.04.68.04,3.28,0,6.21-2.15,7.17-5.35l2.53-8.47,1.21-4.02,4.93,7.45-2.66,6.77h32.91l3.1-9.09h9.11l3.08,9.09h93.36l5.48-14.05,5.59,14.05h24.2l8.41-27.27v27.27h120.27v-5.03l2.66,5.03h34.37l-14.19-26Zm-230.79-37.2l10.66,34.07h-10.66v-34.07Zm-84.51,30l-1.68-.9c-.38-.19-.79-.3-1.22-.3-.68,0-1.4.25-2,.72-1.01.74-1.59,1.93-1.43,3.03l1.32,10.19-2.04,5.19-3.94-5.96-3.54-5.35c-.45-.67-1.19-1.04-2.03-1.04-.28,0-.56.04-.85.12-1.17.33-2.13,1.28-2.48,2.42l-3.81,12.73-2.53,8.48-1.5-13.67-.76-6.88c-.13-1.1-.93-1.91-2.04-2.07-.12-.02-.25-.02-.37-.02-1.01,0-2.06.53-2.73,1.4l-8.64,11.09-5.6,7.21,4.37-13.79,2.33-7.36c.37-1.13.04-2.25-.83-2.87-.41-.29-.92-.42-1.43-.42-.59,0-1.2.17-1.76.51l-11.82,7.38-7.84,4.89,9.24-11.54,5.26-6.58c.79-.98.98-2.22.51-3.17-.42-.8-1.23-1.26-2.17-1.26-.19,0-.38.02-.56.06l-12.76,2.4-8.93,1.68,12.31-7.43,7.51-4.53c1.08-.64,1.75-1.78,1.73-2.91,0-1.15-.69-2.04-1.77-2.3l-11.34-2.73-8.63-2.08,13.03-2.23,8.67-1.48c1.17-.19,2.22-1.04,2.68-2.16.46-1.12.26-2.29-.55-2.98l-8.07-7.03-6.71-5.84,11.59,3.03,8.23,2.15c.21.04.44.07.66.07.89,0,1.83-.4,2.51-1.13.87-.9,1.19-2.14.78-3.15l-3.66-9.76-3.37-8.93,8.34,7.56,6.16,5.6c.44.4,1.03.6,1.67.6.47,0,.97-.11,1.45-.34,1.1-.55,1.89-1.65,1.98-2.78l.97-10.74.94-10.56,3.86,10.83,2.83,8.03c.34.96,1.22,1.55,2.28,1.55.07,0,.15,0,.23,0,1.17-.1,2.29-.86,2.86-1.95l5.2-9.99,5.31-10.21-1.31,12.43-.96,8.9c-.11,1.13.46,2.13,1.47,2.52.29.11.61.16.93.16.79,0,1.62-.33,2.29-.92l8.57-7.73,8.76-7.89-6.5,12.02-4.36,8.05c-.57,1.09-.5,2.29.19,3.1.45.5,1.11.78,1.84.78.38,0,.78-.07,1.17-.23l10.67-4.2,10.47-4.14-10.84,9.51-6.7,5.86c-.96.83-1.41,2.05-1.15,3.11.25,1.06,1.15,1.76,2.31,1.79l1.23.02-13.5,34.37Zm40.53,25.7l-3.09-9.09h-19.85l-3.1,9.09h-16.53l1.86-4.74,2.84-7.23,1.24-3.15,1.38-3.51,1.38-3.51,2.09-5.33,1.65-4.2,1.02-2.6,1.45-3.68,2.51-6.38,1.37-3.5.72-1.83,1.84-4.69.65-1.65h15.08l1.3,3.24,17.54,43.69,3.64,9.07h-16.99Zm56.41,0h-31.34l-4.22-10.51v-45.49h15.63v41.87h0s19.93.01,19.93.01v14.12Zm75.25-45.2l-13.94,45.2h-13.58l-10.75-27.03-10.53,27.03h-13.58l-5.37-17.14-1.4-4.49-10.77-34.37h16.57l9.08,32.28,13.35-32h5.33l13.58,32.02,8.91-32.3h16.43l-3.33,10.8Zm44.01,45.2h-36.51v-56h35.83v13.34h-20.47v8.24h18.39v12.66h-18.39v8.38h21.15v13.38Zm44.92,0h-36.51v-56h35.83v13.34h-20.47v8.24h18.39v12.66h-18.39v8.38h21.15v13.38Zm38.52,0l-9.09-17.13h-5.59v17.13h-15.43v-56h24.27c12.07,0,20.82,8.12,20.82,19.82,0,5.15-1.88,9.6-5.16,12.91-.27.28-.55.55-.84.81-.88.78-1.84,1.48-2.88,2.1l11.11,20.36h-17.21Z"/>
    </g>
  </g>
</svg>